<?xml version="1.0" encoding="UTF-8" standalone="no"?>
<!-- Created with Inkscape (http://www.inkscape.org/) -->

<svg
   xmlns:dc="http://purl.org/dc/elements/1.1/"
   xmlns:cc="http://creativecommons.org/ns#"
   xmlns:rdf="http://www.w3.org/1999/02/22-rdf-syntax-ns#"
   xmlns:svg="http://www.w3.org/2000/svg"
   xmlns="http://www.w3.org/2000/svg"
   xmlns:sodipodi="http://sodipodi.sourceforge.net/DTD/sodipodi-0.dtd"
   xmlns:inkscape="http://www.inkscape.org/namespaces/inkscape"
   version="1.0"
   width="46.334526"
   height="23.165007"
   id="svg2"
   inkscape:version="0.48.4 r9939"
   sodipodi:docname="gpaw-logo-small.svg">
  <sodipodi:namedview
     pagecolor="#ffffff"
     bordercolor="#666666"
     borderopacity="1"
     objecttolerance="10"
     gridtolerance="10"
     guidetolerance="10"
     inkscape:pageopacity="0"
     inkscape:pageshadow="2"
     inkscape:window-width="1680"
     inkscape:window-height="991"
     id="namedview15"
     showgrid="false"
     fit-margin-top="0"
     fit-margin-left="0"
     fit-margin-right="0"
     fit-margin-bottom="0"
     inkscape:zoom="1.9770963"
     inkscape:cx="0.57323325"
     inkscape:cy="-15.502297"
     inkscape:window-x="0"
     inkscape:window-y="27"
     inkscape:window-maximized="1"
     inkscape:current-layer="svg2" />
  <defs
     id="defs4" />
  <metadata
     id="metadata7">
    <rdf:RDF>
      <cc:Work
         rdf:about="">
        <dc:format>image/svg+xml</dc:format>
        <dc:type
           rdf:resource="http://purl.org/dc/dcmitype/StillImage" />
        <dc:title />
      </cc:Work>
    </rdf:RDF>
  </metadata>
  <g
     transform="matrix(0.74098691,0,0,0.74098691,-229.39936,-333.52216)"
     id="layer1">
    <path
       d="m 319.96609,472.1277 c -2.4888,0.46505 -4.9776,0.93009 -7.4664,1.39514 1.05421,-2.40542 2.10842,-4.81083 3.16263,-7.21624 -2.02535,-1.62392 -4.05071,-3.24784 -6.07607,-4.87177 2.38452,-0.73926 4.76903,-1.47852 7.15354,-2.21779 -0.80138,-2.15098 -1.60275,-4.30195 -2.40413,-6.45292 2.23602,0.5479 4.47204,1.0958 6.70806,1.6437 0.61204,-1.43417 1.22409,-2.86833 1.83614,-4.30249 1.62391,1.58276 3.24783,3.16553 4.87176,4.74829 1.62392,-1.54054 3.24784,-3.08107 4.87176,-4.62161 1.47693,2.29958 2.95386,4.59916 4.43078,6.89873 2.19374,-1.72975 4.38747,-3.45952 6.58121,-5.18927 1.62553,2.00397 3.25105,4.00795 4.87658,6.01193 1.07549,-1.37109 2.15097,-2.74218 3.22646,-4.11326 1.22248,1.32885 2.44497,2.65771 3.66745,3.98657 1.64638,-2.42519 3.29275,-4.85039 4.93912,-7.27558 0.59067,2.3402 1.18133,4.68041 1.77199,7.0206 1.72869,-1.07548 3.45739,-2.15097 5.18607,-3.22646 0.21222,2.17236 0.42443,4.34472 0.63664,6.51707 1.39247,-0.33622 2.78493,-0.67244 4.1774,-1.00867 -1.83667,2.23597 -3.67333,4.47194 -5.51,6.7079 1.64531,0.9905 3.29061,1.981 4.93591,2.97149 -1.91952,0.56982 -3.83904,1.13963 -5.75856,1.70945 0.88626,2.21459 1.77252,4.42917 2.65878,6.64376 -1.98259,-0.80128 -3.96519,-1.60255 -5.94779,-2.40382 -0.80127,1.81475 -1.60254,3.62951 -2.4038,5.44426 -1.54108,-1.62393 -3.08215,-3.24785 -4.62321,-4.87177 -0.94827,1.77092 -1.89654,3.54184 -2.84481,5.31276 -1.32992,-2.40434 -2.65985,-4.80869 -3.98977,-7.21304 -1.72816,2.38297 -3.45632,4.76593 -5.18448,7.14889 -1.6469,-2.34019 -3.29381,-4.68039 -4.94072,-7.0206 -1.24387,1.4967 -2.48773,2.99341 -3.7316,4.49011 -0.6965,-1.91952 -1.393,-3.83904 -2.0895,-5.75856 -1.62446,2.70101 -3.24892,5.40202 -4.87337,8.10304 -0.82212,-2.08897 -1.64423,-4.17794 -2.46635,-6.26691 -1.62392,0.92849 -3.24785,1.85698 -4.87177,2.78547 -0.16998,-1.83613 -0.33996,-3.67226 -0.50995,-5.5084 z"
       id="polygon2423"
       style="font-style:normal;font-variant:normal;font-weight:normal;font-stretch:normal;letter-spacing:normal;word-spacing:normal;text-anchor:start;fill:#ffff00;fill-opacity:1;stroke:none"
       inkscape:connector-curvature="0" />
    <path
       d="m 338.11254,461.8213 c 0.008,-0.73485 -0.59352,-1.28607 -1.20193,-1.59515 -1.26352,-0.63517 -2.69632,-0.8074 -4.08892,-0.91667 -0.57997,-0.0392 -1.16131,-0.057 -1.74259,-0.0556 -0.47029,1.58313 -0.31296,3.25929 -0.30794,4.88751 0.0559,2.45491 0.0197,4.96346 -0.74242,7.32238 1.0233,-0.0506 2.0013,0.33762 3.02244,0.31708 0.49681,0.0218 0.24565,-0.83437 0.39743,-1.19907 0.092,-1.10386 0.0684,-2.21491 0.17227,-3.31887 0.11436,-0.41235 -0.0905,-1.17125 0.25224,-1.34484 1.44593,-0.005 2.90501,-0.73028 3.63446,-2.00636 0.37441,-0.62904 0.60038,-1.3559 0.60496,-2.09045 z"
       id="path2425"
       style="font-style:normal;font-variant:normal;font-weight:normal;font-stretch:normal;letter-spacing:normal;word-spacing:normal;text-anchor:start;fill:#808040;fill-opacity:1;stroke:none"
       inkscape:connector-curvature="0" />
    <path
       d="m 343.78451,461.78923 c -0.36698,-0.16423 -0.69325,-0.45475 -1.10095,-0.50445 -0.76262,0.067 -1.52536,0.15526 -2.29257,0.16359 -0.36974,0.009 -0.73956,0.0146 -1.10942,0.0137 -0.86111,2.8502 -1.46779,5.76942 -2.1188,8.67271 -0.13047,0.60031 -0.2596,1.2009 -0.38604,1.80207 1.7233,0.39394 3.51909,0.24955 5.25343,0 -0.29988,-1.41492 -0.59975,-2.82984 -0.89963,-4.24476 0.66978,0.0791 1.33955,0.15822 2.00933,0.23734 0.51183,1.19423 1.00555,2.39695 1.52875,3.58586 0.41478,0.55078 1.20235,0.46315 1.81014,0.39232 0.53161,-0.0921 1.07926,-0.20466 1.5473,-0.48392 0.0423,-0.48762 -0.2792,-0.94764 -0.43948,-1.40211 -1.15846,-2.60544 -2.56055,-5.09898 -3.64129,-7.73914 -0.0605,-0.16196 -0.11907,-0.32524 -0.16077,-0.49324 z"
       id="path2427"
       style="font-style:normal;font-variant:normal;font-weight:normal;font-stretch:normal;letter-spacing:normal;word-spacing:normal;text-anchor:start;fill:#808040;fill-opacity:1;stroke:none"
       inkscape:connector-curvature="0" />
    <path
       d="m 360.66731,470.30119 c -0.009,-2.97225 -0.30072,-5.9719 -1.18123,-8.82142 -0.15021,-0.46863 -0.313,-0.93458 -0.5218,-1.38075 1.13428,0 2.26857,0 3.40286,0 -0.56661,3.40073 -1.13322,6.80145 -1.69983,10.20217 z"
       id="polygon2429"
       style="font-style:normal;font-variant:normal;font-weight:normal;font-stretch:normal;letter-spacing:normal;word-spacing:normal;text-anchor:start;fill:#808040;fill-opacity:1;stroke:none"
       inkscape:connector-curvature="0" />
    <path
       d="m 360.30008,473.13316 c -0.4888,-0.007 -1.00107,-0.0898 -1.41017,-0.37424 -0.18851,-0.129 -0.3481,-0.36161 -0.27653,-0.59822 0.0956,-0.2916 0.39062,-0.44784 0.65779,-0.55429 0.51612,-0.19145 1.0856,-0.21202 1.62473,-0.11934 0.33412,0.0643 0.67489,0.1815 0.92721,0.41801 0.15417,0.14581 0.23761,0.39057 0.12395,0.58538 -0.15291,0.28401 -0.46874,0.42261 -0.76172,0.51772 -0.28614,0.0881 -0.58648,0.124 -0.88526,0.12498 z"
       id="path2431"
       style="font-style:normal;font-variant:normal;font-weight:normal;font-stretch:normal;letter-spacing:normal;word-spacing:normal;text-anchor:start;fill:#808040;fill-opacity:1;stroke:none"
       inkscape:connector-curvature="0" />
    <path
       d="m 348.65307,471.0597 c -0.54187,-1.66113 -1.23704,-3.26493 -1.89233,-4.88271 -0.55083,-1.33919 -0.81648,-2.78076 -0.85095,-4.22546 -0.0114,-0.29932 -0.0153,-0.59885 -0.0166,-0.89836 1.03425,-0.42102 2.21776,-0.30549 3.24571,0.077 0.58478,1.57848 1.16957,3.15697 1.75435,4.73546 0.35812,-1.26521 0.69182,-2.54778 1.23478,-3.74924 0.49283,0.0418 1.20401,-0.13715 1.55369,0.13757 0.26573,1.29636 0.53146,2.59273 0.7972,3.88909 0.37525,-1.89814 0.75049,-3.79628 1.12573,-5.69441 0.70651,-0.215 1.48327,-0.0259 2.09592,0.3592 -0.0389,3.99485 -0.45779,7.97151 -0.69436,11.95651 -0.79935,0.0428 -1.59169,-0.0883 -2.38617,-0.14913 -0.67565,-1.11665 -1.35131,-2.2333 -2.02696,-3.34994 -0.71201,0.71949 -1.42401,1.43897 -2.13602,2.15846 -0.60135,-0.12134 -1.2027,-0.24268 -1.80405,-0.36402 z"
       id="path2433"
       style="font-style:normal;font-variant:normal;font-weight:normal;font-stretch:normal;letter-spacing:normal;word-spacing:normal;text-anchor:start;fill:#808040;fill-opacity:1;stroke:none"
       inkscape:connector-curvature="0" />
    <path
       d="m 327.82378,462.87006 c 0.66847,-0.18654 1.33606,-0.37622 2.00451,-0.56286 -0.004,-1.26107 0.0404,-2.62057 -0.6088,-3.74998 -0.53675,-0.8862 -1.67232,-0.93811 -2.59615,-0.9683 -0.76246,0.0168 -1.50921,-0.19089 -2.26836,-0.17531 -1.49964,0.14221 -2.63004,1.32527 -3.45534,2.48827 -0.99235,1.47895 -1.77078,3.17002 -1.92913,4.96133 -0.10877,1.10602 0.73364,1.96581 1.39827,2.73933 1.51719,1.59821 3.24827,3.0285 5.20791,4.05085 0.58049,0.25236 1.26931,0.63417 1.89754,0.34221 0.93055,-0.84191 1.32888,-2.09584 1.71642,-3.25225 0.35681,-1.20746 0.64382,-2.44395 0.77109,-3.69737 0.008,-0.68175 -0.79183,-0.85188 -1.331,-0.80661 -1.2421,0.0656 -2.43907,0.46105 -3.59724,0.89018 -0.0957,0.73606 -0.19136,1.47211 -0.28705,2.20817 0.69631,0.37492 1.50139,0.73927 1.89443,1.46263 0.21208,0.76269 -0.82042,0.66955 -1.22505,0.36537 -1.39461,-0.75931 -2.59244,-1.91019 -3.39601,-3.28061 -0.38758,-0.56952 -0.39912,-1.32383 -0.0326,-1.90684 0.84476,-1.41588 2.23964,-2.38595 3.58912,-3.28036 0.51845,-0.38927 1.37509,-0.2374 1.79949,0.23867 0.40446,0.54821 0.39846,1.28304 0.44796,1.93348 z"
       id="path2435"
       style="font-style:normal;font-variant:normal;font-weight:normal;font-stretch:normal;letter-spacing:normal;word-spacing:normal;text-anchor:start;fill:#808040;fill-opacity:1;stroke:none"
       inkscape:connector-curvature="0" />
    <path
       d="m 333.63687,463.77129 c 0.5986,0.0136 1.22766,0.1337 1.80116,-0.0957 0.28467,-0.14214 0.42624,-0.46689 0.41901,-0.77419 0.0175,-0.3949 0.0257,-0.8105 -0.12905,-1.18122 -0.11216,-0.27014 -0.39346,-0.41242 -0.67351,-0.42871 -0.38751,-0.0458 -0.78127,0.0278 -1.16585,-0.0406 -0.25138,0.0537 -0.0876,0.40858 -0.15561,0.59842 -0.0321,0.64066 -0.0641,1.28132 -0.0961,1.92197 z"
       id="path2437"
       style="font-style:normal;font-variant:normal;font-weight:normal;font-stretch:normal;letter-spacing:normal;word-spacing:normal;text-anchor:start;fill:#ffff00;fill-opacity:1;stroke:none"
       inkscape:connector-curvature="0" />
    <path
       d="m 342.7614,466.11577 c 0.0237,-0.71466 0.22457,-1.42292 0.13537,-2.14032 0.0486,-0.26899 -0.28482,-0.22942 -0.45468,-0.27567 -0.43394,-0.0903 -0.86871,0.0308 -1.30058,0.0713 -0.13326,0.24165 -0.0905,0.53193 -0.16405,0.79197 -0.0635,0.41286 -0.12499,0.82605 -0.1917,1.23841 0.65855,0.10476 1.31709,0.20954 1.97564,0.31431 z"
       id="path2439"
       style="font-style:normal;font-variant:normal;font-weight:normal;font-stretch:normal;letter-spacing:normal;word-spacing:normal;text-anchor:start;fill:#ffff00;fill-opacity:1;stroke:none"
       inkscape:connector-curvature="0" />
  </g>
</svg>
